<svg width="24" height="24" viewBox="0 0 24 24" fill="none" xmlns="http://www.w3.org/2000/svg">
<path fill-rule="evenodd" clip-rule="evenodd" d="M8.2893 3.05415C9.24926 3.01037 9.55575 3 12 3C14.4442 3 14.7507 3.01037 15.7107 3.05415C16.6686 3.09785 17.3229 3.25002 17.8953 3.47246C18.4872 3.70246 18.9891 4.01022 19.4895 4.51055C19.9898 5.01088 20.2975 5.51284 20.5275 6.10467C20.75 6.67712 20.9021 7.33136 20.9458 8.2893C20.9896 9.24926 21 9.55575 21 12C21 14.4442 20.9896 14.7507 20.9458 15.7107C20.9021 16.6686 20.75 17.3229 20.5275 17.8953C20.2975 18.4872 19.9898 18.9891 19.4895 19.4895C18.9891 19.9898 18.4872 20.2975 17.8953 20.5275C17.3229 20.75 16.6686 20.9021 15.7107 20.9458C14.7507 20.9896 14.4442 21 12 21C9.55575 21 9.24926 20.9896 8.2893 20.9458C7.33136 20.9021 6.67712 20.75 6.10464 20.5275C5.51281 20.2975 5.01093 19.9898 4.51057 19.4895C4.01025 18.9891 3.70249 18.4872 3.47249 17.8953C3.24999 17.3229 3.09788 16.6686 3.05412 15.7107C3.01034 14.7507 3 14.4442 3 12C3 9.55575 3.01034 9.24926 3.05412 8.2893C3.09788 7.33136 3.24999 6.67712 3.47249 6.10467C3.70246 5.51284 4.01022 5.01088 4.51057 4.51055C5.0109 4.01022 5.51281 3.70246 6.10464 3.47246C6.67712 3.25002 7.33136 3.09785 8.2893 3.05415ZM15.6368 4.6741C14.6877 4.6308 14.4031 4.62161 12 4.62161H12C9.59691 4.62161 9.31225 4.6308 8.36323 4.6741C7.48575 4.7141 7.00918 4.86072 6.69205 4.98397C6.27197 5.14726 5.97214 5.34227 5.6572 5.65723C5.34229 5.97214 5.14726 6.27194 4.98397 6.69208C4.86072 7.00918 4.71413 7.48572 4.6741 8.36323C4.6308 9.31225 4.62161 9.59691 4.62161 12C4.62161 14.4031 4.6308 14.6877 4.6741 15.6368C4.71413 16.5143 4.86072 16.9908 4.98397 17.308C5.14726 17.728 5.34229 18.0279 5.65723 18.3428C5.97214 18.6577 6.27194 18.8527 6.69208 19.016C7.00918 19.1393 7.48572 19.2859 8.36323 19.3259C9.31214 19.3692 9.59672 19.3784 12 19.3784C14.4033 19.3784 14.6879 19.3692 15.6368 19.3259C16.5143 19.2859 16.9908 19.1393 17.308 19.016C17.728 18.8527 18.0279 18.6577 18.3428 18.3428C18.6577 18.0279 18.8527 17.7281 19.016 17.3079C19.1393 16.9908 19.2859 16.5143 19.3259 15.6368C19.3692 14.6877 19.3784 14.4031 19.3784 12C19.3784 9.59691 19.3692 9.31225 19.3259 8.36323C19.2859 7.48575 19.1393 7.00918 19.016 6.69205C18.8527 6.27197 18.6577 5.97214 18.3428 5.6572C18.0279 5.34227 17.7281 5.14726 17.3079 4.98397C16.9908 4.86072 16.5143 4.7141 15.6368 4.6741ZM9.00003 12C9.00003 13.6568 10.3432 15 12.0001 15C13.6569 15 15 13.6568 15 12C15 10.3431 13.6569 8.99995 12.0001 8.99995C10.3432 8.99995 9.00003 10.3431 9.00003 12ZM7.37842 12C7.37842 9.4475 9.44757 7.37834 12.0001 7.37834C14.5525 7.37834 16.6217 9.4475 16.6217 12C16.6217 14.5524 14.5525 16.6216 12.0001 16.6216C9.44757 16.6216 7.37842 14.5524 7.37842 12ZM16.8043 8.27573C17.4007 8.27573 17.8843 7.79223 17.8843 7.19574C17.8843 6.59928 17.4007 6.11572 16.8043 6.11572C16.2078 6.11572 15.7243 6.59928 15.7243 7.19574C15.7243 7.79223 16.2078 8.27573 16.8043 8.27573Z" fill="white"/>
</svg>
