<svg width="16" height="16" viewBox="0 0 16 16" fill="none" xmlns="http://www.w3.org/2000/svg">
<path fill-rule="evenodd" clip-rule="evenodd" d="M1.33398 7.99967C1.33398 4.31967 4.32065 1.33301 8.00065 1.33301C11.6807 1.33301 14.6673 4.31967 14.6673 7.99967C14.6673 11.6797 11.6807 14.6663 8.00065 14.6663C4.32065 14.6663 1.33398 11.6797 1.33398 7.99967ZM8.66732 7.33301V11.333H7.33398V7.33301H8.66732ZM8.00065 13.333C5.06065 13.333 2.66732 10.9397 2.66732 7.99967C2.66732 5.05967 5.06065 2.66634 8.00065 2.66634C10.9407 2.66634 13.334 5.05967 13.334 7.99967C13.334 10.9397 10.9407 13.333 8.00065 13.333ZM8.66732 4.66634V5.99967H7.33398V4.66634H8.66732Z" fill="#DDDDDD"/>
</svg>
