<svg width="20" height="19" viewBox="0 0 20 19" fill="none" xmlns="http://www.w3.org/2000/svg">
<path d="M16.5886 12.8185L16.5524 12.784L16.5887 12.8185L16.5887 12.8184L16.5888 12.8183L16.5893 12.8178L16.5912 12.8158L16.5985 12.8081L16.6259 12.7785C16.6496 12.7528 16.6836 12.7154 16.7249 12.6688C16.8074 12.5755 16.9193 12.4449 17.0365 12.2957C17.2692 11.9993 17.5291 11.6219 17.6164 11.3158L19.4967 4.72366C19.7403 3.86987 19.0991 3.02143 18.2122 3.02143H4.35714H4.35708C4.335 3.02145 4.31292 3.02201 4.29086 3.0231C4.16573 2.60433 4.00606 2.14409 3.78695 1.74423C3.44899 1.12654 2.84939 0.45 1.84537 0.45H1.27143C1.05357 0.45 0.844639 0.536543 0.690591 0.690591C0.536543 0.844639 0.45 1.05357 0.45 1.27143C0.45 1.48928 0.536543 1.69822 0.690591 1.85227C0.844639 2.00631 1.05357 2.09286 1.27143 2.09286H1.8464C1.91478 2.09286 1.98588 2.10796 2.06553 2.16782C2.14699 2.22902 2.23978 2.33886 2.34554 2.53368L2.34568 2.53394C2.56602 2.93418 2.71456 3.47254 2.87518 4.0563L2.87576 4.06094L2.87508 4.06103L2.87744 4.06896L4.17329 8.43784L4.17344 8.43833L4.95486 11.2885L4.95487 11.2886C5.12183 11.8967 5.4839 12.4332 5.98542 12.8156C6.48695 13.198 7.10018 13.4051 7.73086 13.4051H14.8488C15.4745 13.4049 16.0831 13.2009 16.5825 12.8239L16.5829 12.8245L16.5886 12.8185ZM5.75188 7.98243L5.75191 7.98243L5.75148 7.98099L4.76868 4.66429H17.8055L16.0371 10.8656C16.0371 10.8656 16.0371 10.8656 16.0371 10.8656C15.9634 11.1239 15.8075 11.3511 15.5931 11.5129C15.3787 11.6747 15.1174 11.7622 14.8488 11.7622H7.73086C7.17435 11.7622 6.68691 11.3896 6.53859 10.8536L5.76628 8.03695L5.76616 8.03649L5.75188 7.98243ZM8.67569 17.9328C9.07086 17.5377 9.29286 17.0017 9.29286 16.4429C9.29286 15.884 9.07086 15.348 8.67569 14.9529C8.28052 14.5577 7.74456 14.3357 7.18571 14.3357C6.62687 14.3357 6.09091 14.5577 5.69574 14.9529C5.30057 15.348 5.07857 15.884 5.07857 16.4429C5.07857 17.0017 5.30057 17.5377 5.69574 17.9328C6.09091 18.328 6.62687 18.55 7.18571 18.55C7.74456 18.55 8.28052 18.328 8.67569 17.9328ZM7.51401 16.1146C7.60109 16.2016 7.65 16.3197 7.65 16.4429C7.65 16.566 7.60109 16.6841 7.51401 16.7712C7.42694 16.8582 7.30885 16.9071 7.18571 16.9071C7.06258 16.9071 6.94449 16.8582 6.85741 16.7712C6.77034 16.6841 6.72143 16.566 6.72143 16.4429C6.72143 16.3197 6.77034 16.2016 6.85741 16.1146C6.94449 16.0275 7.06258 15.9786 7.18571 15.9786C7.30885 15.9786 7.42694 16.0275 7.51401 16.1146ZM16.8757 17.9328C17.2709 17.5377 17.4929 17.0017 17.4929 16.4429C17.4929 15.884 17.2709 15.348 16.8757 14.9529C16.4805 14.5577 15.9446 14.3357 15.3857 14.3357C14.8269 14.3357 14.2909 14.5577 13.8957 14.9529C13.5006 15.348 13.2786 15.884 13.2786 16.4429C13.2786 17.0017 13.5006 17.5377 13.8957 17.9328C14.2909 18.328 14.8269 18.55 15.3857 18.55C15.9446 18.55 16.4805 18.328 16.8757 17.9328ZM15.714 16.1146C15.8011 16.2016 15.85 16.3197 15.85 16.4429C15.85 16.566 15.8011 16.6841 15.714 16.7712C15.6269 16.8582 15.5089 16.9071 15.3857 16.9071C15.2626 16.9071 15.1445 16.8582 15.0574 16.7712C14.9703 16.6841 14.9214 16.566 14.9214 16.4429C14.9214 16.3197 14.9703 16.2016 15.0574 16.1146C15.1445 16.0275 15.2626 15.9786 15.3857 15.9786C15.5089 15.9786 15.6269 16.0275 15.714 16.1146Z" fill="black" stroke="black" stroke-width="0.1"/>
</svg>
