<svg width="21" height="21" viewBox="0 0 21 21" fill="none" xmlns="http://www.w3.org/2000/svg">
<path d="M17.0634 17.7072L17.0633 17.7073L17.0663 17.7096C17.2033 17.8114 17.3738 17.8576 17.5434 17.8388C17.7131 17.82 17.8693 17.7376 17.9806 17.6082C18.092 17.4788 18.1502 17.3121 18.1435 17.1416C18.1368 16.971 18.0658 16.8093 17.9447 16.689L13.8933 12.6376C14.6024 11.7506 15.0496 10.6828 15.1841 9.55465C15.3203 8.41154 15.1299 7.25323 14.6348 6.21392C14.1398 5.17462 13.3603 4.29687 12.3868 3.68239C11.4134 3.06791 10.2857 2.74185 9.13448 2.74199C8.15947 2.74214 7.19874 2.97633 6.33303 3.42487C5.46732 3.87341 4.72192 4.5232 4.15948 5.31963C3.59703 6.11606 3.23398 7.03586 3.10082 8.00174C2.96767 8.96761 3.06831 9.95134 3.39428 10.8702C3.72025 11.7892 4.26202 12.6164 4.97408 13.2824C5.68614 13.9485 6.54767 14.4339 7.48627 14.6978C8.42487 14.9618 9.41312 14.9966 10.368 14.7993C11.3081 14.6051 12.1888 14.1915 12.9384 13.5924L16.9908 17.644L16.9907 17.6441L16.9934 17.6464L17.0634 17.7072ZM7.31993 4.45293C7.89522 4.21464 8.51181 4.09199 9.13449 4.09199C10.3921 4.09199 11.5981 4.59156 12.4874 5.48079C13.3766 6.37003 13.8762 7.57609 13.8762 8.83366C13.8762 10.0912 13.3766 11.2973 12.4874 12.1865C11.5981 13.0758 10.3921 13.5753 9.13449 13.5753C8.51181 13.5753 7.89522 13.4527 7.31993 13.2144C6.74465 12.9761 6.22193 12.6268 5.78163 12.1865C5.34132 11.7462 4.99205 11.2235 4.75376 10.6482C4.51547 10.0729 4.39282 9.45634 4.39282 8.83366C4.39282 8.21097 4.51547 7.59439 4.75376 7.0191C4.99205 6.44382 5.34132 5.9211 5.78163 5.48079C6.22193 5.04049 6.74465 4.69122 7.31993 4.45293Z" fill="#666666" stroke="black" stroke-width="0.1"/>
</svg>
