<svg width="123" height="22" viewBox="0 0 123 22" fill="none" xmlns="http://www.w3.org/2000/svg">
<g clip-path="url(#clip0_3283_9697)">
<path fill-rule="evenodd" clip-rule="evenodd" d="M96.8659 15.2643C95.8808 15.2643 95.1285 15.0093 94.6043 14.5025C94.0816 13.9941 93.7934 13.1753 93.7427 12.0461H102.911C102.978 11.0626 102.895 10.1202 102.667 9.21906C102.436 8.31949 102.064 7.51494 101.549 6.81016C101.033 6.10698 100.372 5.54632 99.5694 5.12821C98.7648 4.7101 97.8225 4.50104 96.7424 4.50104C95.7763 4.50104 94.8941 4.67367 94.0991 5.01735C93.304 5.36102 92.6214 5.83298 92.0465 6.43006C91.4748 7.02872 91.0313 7.73666 90.7209 8.55547C90.4089 9.37427 90.2521 10.2596 90.2521 11.2098C90.2521 12.1934 90.4042 13.0961 90.7082 13.9133C91.0107 14.7353 91.4415 15.4385 91.999 16.0276C92.5549 16.6168 93.2359 17.0729 94.0389 17.3913C94.8419 17.7112 95.743 17.8711 96.7424 17.8711C98.1836 17.8711 99.4142 17.5449 100.429 16.8892C101.445 16.2335 102.2 15.1423 102.691 13.6187H99.6185C99.5028 14.0115 99.1924 14.3837 98.684 14.7369C98.1757 15.0885 97.5691 15.2643 96.8659 15.2643ZM96.6457 7.12692C97.4962 7.12692 98.1313 7.35656 98.5494 7.81585C98.9675 8.27514 99.2574 8.94666 99.4205 9.83039H93.7427C93.7586 9.58491 93.814 9.30617 93.9027 8.99575C93.9929 8.68375 94.1497 8.38917 94.3699 8.11043C94.5932 7.83169 94.8862 7.59888 95.2552 7.41041C95.6242 7.22194 96.0883 7.12692 96.6457 7.12692ZM82.536 9.41386V0H79.047V17.5496H82.536V13.1753L83.8886 11.8719L87.3776 17.5496H91.6046L86.2705 9.51206L91.0646 4.84314H86.9357L82.536 9.41386ZM73.9457 13.4208C73.9869 13.0929 74.0075 12.83 74.0075 12.6336H74.0059V11.3302C73.8586 11.4617 73.6749 11.5646 73.4532 11.6375C73.2315 11.7119 72.9939 11.7721 72.7405 11.8228C72.4871 11.8719 72.221 11.9115 71.9423 11.9463C71.6619 11.978 71.3848 12.0191 71.106 12.0682C70.8431 12.1173 70.585 12.1823 70.3316 12.2646C70.0766 12.3486 69.8549 12.4578 69.6664 12.5972C69.4779 12.7366 69.3275 12.914 69.2119 13.1262C69.0963 13.34 69.0392 13.6108 69.0392 13.9387C69.0392 14.2491 69.0978 14.512 69.2119 14.7242C69.3275 14.938 69.4827 15.1059 69.6791 15.2278C69.877 15.3514 70.1067 15.4369 70.368 15.486C70.6309 15.5351 70.9017 15.5589 71.1805 15.5589C71.8678 15.5589 72.4016 15.4448 72.7785 15.2152C73.1538 14.9855 73.4342 14.7115 73.6131 14.3916C73.7937 14.0717 73.9045 13.7486 73.9457 13.4208ZM70.1241 7.27421C69.7298 7.57037 69.5001 8.06292 69.4352 8.75027V8.74869H65.9477C65.9984 7.92988 66.2027 7.24887 66.5638 6.7088C66.9233 6.16874 67.3826 5.73479 67.9385 5.40537C68.496 5.07753 69.1232 4.84472 69.8184 4.70535C70.5153 4.56598 71.2153 4.49629 71.9201 4.49629C72.5583 4.49629 73.2061 4.54222 73.8618 4.63091C74.5175 4.72277 75.1161 4.89857 75.6562 5.15989C76.1978 5.42279 76.6397 5.78864 76.9834 6.25427C77.327 6.72147 77.4997 7.33914 77.4997 8.11043V14.721C77.4997 15.2944 77.5329 15.8439 77.5979 16.3682C77.6628 16.8924 77.7784 17.2867 77.9416 17.5481H74.4018C74.3353 17.3533 74.2815 17.1521 74.2419 16.9462C74.2007 16.7419 74.1722 16.5329 74.1548 16.3191C73.5973 16.8924 72.9432 17.2931 72.1893 17.5227C71.4355 17.7539 70.6658 17.868 69.8786 17.868C69.272 17.868 68.7066 17.7935 68.1824 17.6462C67.6566 17.499 67.1989 17.2709 66.8046 16.9589C66.4134 16.6469 66.1045 16.2541 65.8844 15.779C65.6627 15.3039 65.5534 14.7385 65.5534 14.0828C65.5534 13.3622 65.6801 12.7683 65.9351 12.3011C66.1885 11.8338 66.5163 11.4617 66.917 11.1829C67.3193 10.9042 67.777 10.6951 68.2933 10.5558C68.8096 10.4164 69.3291 10.3071 69.8533 10.2232C70.3759 10.1424 70.8938 10.0775 71.4022 10.0284C71.909 9.97927 72.3604 9.90483 72.7532 9.80664C73.1475 9.71003 73.4579 9.56591 73.6876 9.37744C73.9172 9.19055 74.0233 8.91498 74.0075 8.55388C74.0075 8.17695 73.9473 7.87762 73.8238 7.65748C73.7002 7.43733 73.5355 7.2647 73.3312 7.14117C73.1269 7.01764 72.8894 6.93528 72.6185 6.89569C72.3493 6.85451 72.0579 6.83234 71.7475 6.83234C71.0585 6.83234 70.5169 6.97963 70.1241 7.27421ZM55.7958 6.39047V0H52.3068V17.5449H55.6248V15.9231H55.6739C56.0492 16.6263 56.6083 17.1268 57.3448 17.4229C58.0812 17.7175 58.9174 17.8648 59.8518 17.8648C60.4917 17.8648 61.122 17.7334 61.7444 17.472C62.3669 17.2107 62.9291 16.81 63.428 16.2684C63.9269 15.7283 64.3323 15.0362 64.6443 14.1921C64.9547 13.3479 65.1115 12.3454 65.1115 11.1813C65.1115 10.0189 64.9547 9.01476 64.6443 8.17061C64.3323 7.32805 63.9269 6.63595 63.428 6.09431C62.9291 5.55424 62.3669 5.15355 61.7444 4.89065C61.1204 4.62933 60.4901 4.49788 59.8518 4.49788C59.0647 4.49788 58.3061 4.64992 57.5776 4.95241C56.849 5.2565 56.271 5.73638 55.8449 6.39047H55.7958ZM60.905 8.3575C61.1521 8.73443 61.3311 9.16838 61.4467 9.65935C61.5623 10.1503 61.6193 10.6682 61.6193 11.2083C61.6193 11.7341 61.5623 12.2409 61.4467 12.7318C61.3311 13.2228 61.1521 13.6583 60.905 14.0353C60.6611 14.4122 60.3539 14.7115 59.9849 14.9317C59.6175 15.1534 59.1693 15.2643 58.645 15.2643C58.1366 15.2643 57.6948 15.1534 57.3178 14.9317C56.9393 14.71 56.6305 14.4122 56.3834 14.0353C56.1379 13.6583 55.9574 13.2244 55.8434 12.7318C55.7277 12.2409 55.6707 11.7341 55.6707 11.2083C55.6707 10.6682 55.7293 10.1519 55.8434 9.65935C55.9574 9.16838 56.1379 8.73443 56.3834 8.3575C56.6305 7.98056 56.9409 7.68123 57.3178 7.45951C57.6948 7.23778 58.1366 7.12692 58.645 7.12692C59.1693 7.12692 59.6159 7.23936 59.9849 7.45951C60.3523 7.68123 60.6596 7.98056 60.905 8.3575ZM46.2584 7.1776V4.84314H43.7038V1.03261H40.2132V4.84314H38.0989V7.1776H40.2132V14.6751C40.2132 15.315 40.3193 15.8313 40.5316 16.224C40.7438 16.6184 41.0352 16.9209 41.4042 17.1331C41.7732 17.3469 42.1993 17.491 42.6823 17.5639C43.1654 17.6367 43.6769 17.6732 44.2186 17.6732C44.5622 17.6732 44.9138 17.6653 45.2749 17.6494C45.636 17.6336 45.9639 17.6003 46.2584 17.5512V14.8477C46.0953 14.8794 45.9227 14.9032 45.7421 14.9206C45.5616 14.9364 45.3731 14.9444 45.1767 14.9444C44.586 14.9444 44.1932 14.8462 43.9968 14.6498C43.8004 14.4534 43.7023 14.059 43.7023 13.4699V7.1776H46.2584ZM29.4943 6.61219V4.84314H26.1764V17.5496H29.667V10.8899C29.667 9.59441 29.8792 8.66475 30.3052 8.09934C30.7313 7.53236 31.4186 7.25045 32.3705 7.25045C33.2067 7.25045 33.7879 7.51019 34.1158 8.02491C34.4436 8.54121 34.6083 9.32359 34.6083 10.372V17.5496H38.0973V9.73378C38.0973 8.94666 38.0276 8.2308 37.8883 7.58304C37.7489 6.93687 37.5082 6.38889 37.1629 5.93751C36.8192 5.48614 36.3473 5.13455 35.7486 4.87956C35.15 4.62458 34.385 4.49788 33.4506 4.49788C32.7141 4.49788 31.9935 4.66575 31.2887 5.00151C30.584 5.33727 30.0107 5.87416 29.5688 6.61219H29.4943ZM3.31956 6.4649V4.84314H0V21.9968H3.49219V15.9754H3.54129C3.96732 16.5978 4.51213 17.0698 5.17573 17.3881C5.83932 17.708 6.56468 17.868 7.35181 17.868C8.28465 17.868 9.10028 17.6874 9.79714 17.3279C10.4924 16.9668 11.0752 16.4838 11.5424 15.8772C12.0096 15.2722 12.3565 14.5753 12.5861 13.7882C12.8158 13.0011 12.9314 12.1823 12.9314 11.3302C12.9314 10.4291 12.8158 9.56432 12.5861 8.7376C12.3565 7.90929 12.0049 7.18393 11.5298 6.5631C11.0546 5.9391 10.456 5.44021 9.73537 5.06328C9.01318 4.68634 8.15319 4.49788 7.15384 4.49788C6.36671 4.49788 5.6461 4.65308 4.99043 4.96509C4.33475 5.27867 3.79469 5.77597 3.36866 6.4649H3.31956ZM8.78828 14.021C8.55072 14.39 8.23872 14.6894 7.85386 14.919C7.46901 15.1487 6.98913 15.2627 6.41423 15.2627C5.85674 15.2627 5.38161 15.1487 4.98884 14.919C4.59607 14.6894 4.2809 14.39 4.04334 14.021C3.80577 13.652 3.63314 13.2228 3.52703 12.7303C3.41934 12.2393 3.36707 11.7388 3.36707 11.2304C3.36707 10.7062 3.41617 10.1978 3.51436 9.70686C3.61256 9.21431 3.78043 8.78036 4.018 8.40343C4.25556 8.02649 4.56756 7.71924 4.95242 7.48168C5.33727 7.24411 5.81715 7.12533 6.39047 7.12533C6.94637 7.12533 7.41833 7.24411 7.80318 7.48168C8.18804 7.72083 8.50479 8.03124 8.75027 8.4161C8.99575 8.80095 9.17313 9.23965 9.27925 9.73062C9.38536 10.2216 9.43921 10.7221 9.43921 11.2304C9.43921 11.7388 9.39011 12.2393 9.29192 12.7303C9.19372 13.2228 9.02584 13.652 8.78828 14.021ZM21.3602 2.87611H24.8508V0H21.3602V2.87611ZM24.8492 17.5481V4.84314H21.3586C20.9167 4.84314 20.4907 4.91599 20.0821 5.04586C19.6719 5.17731 19.287 5.36261 18.9259 5.59859C18.5648 5.83615 18.2465 6.12281 17.9677 6.45857C17.6874 6.79591 17.4673 7.16017 17.3042 7.55295H17.2551V4.84155H13.9371V17.5496H17.4277V12.1744C17.4277 11.6026 17.4847 11.0689 17.6003 10.5779C17.7143 10.0854 17.9076 9.65618 18.1784 9.28558C18.4492 8.91815 18.8056 8.62832 19.2474 8.41451C19.6893 8.20229 20.2309 8.09459 20.8692 8.09459C21.0276 8.09459 21.1923 8.09459 21.3602 8.10251V17.5481H24.8492ZM122.89 4.84472H119.278L116.5 13.5459H116.451L113.575 4.84472H111.074H111.067H110.825L110.827 4.85264C110.472 4.87481 110.128 4.94292 109.794 5.04903C109.384 5.18048 108.999 5.3642 108.638 5.60176C108.277 5.83932 107.959 6.12598 107.68 6.46174C107.401 6.7975 107.179 7.16176 107.016 7.55612H106.967V4.84472H103.649V17.5528H107.138V12.1775C107.138 11.6042 107.195 11.0721 107.309 10.5811C107.425 10.0885 107.616 9.65935 107.889 9.29034C108.158 8.92132 108.514 8.63149 108.958 8.41768C109.4 8.20546 109.941 8.09776 110.58 8.09776C110.626 8.09776 110.639 8.09776 110.652 8.09791C110.657 8.09797 110.662 8.09805 110.669 8.09816C110.7 8.09867 110.773 8.09984 111.077 8.10252L114.311 16.7673C114.409 17.0127 114.458 17.2757 114.458 17.5544C114.458 17.9297 114.347 18.275 114.126 18.587C113.906 18.8974 113.565 19.078 113.106 19.1271C112.764 19.1429 112.418 19.135 112.073 19.1017C111.978 19.0925 111.884 19.0834 111.79 19.0742L111.574 19.053C111.402 19.0363 111.233 19.0197 111.066 19.0035V21.8796C111.425 21.9129 111.782 21.9414 112.135 21.9652C112.488 21.9905 112.843 22.0016 113.204 22.0016C114.401 22.0016 115.333 21.7814 116.006 21.3396C116.677 20.8961 117.201 20.1597 117.578 19.1271L122.89 4.84472Z" fill="black"/>
</g>
<defs>
<clipPath id="clip0_3283_9697">
<rect width="122.89" height="22" fill="white"/>
</clipPath>
</defs>
</svg>
